<svg width="28" height="28" viewBox="0 0 28 28" fill="none" xmlns="http://www.w3.org/2000/svg">
<path d="M22.75 14.875C22.75 14.6429 22.8422 14.4204 23.0063 14.2563C23.1704 14.0922 23.3929 14 23.625 14C23.8571 14 24.0796 14.0922 24.2437 14.2563C24.4078 14.4204 24.5 14.6429 24.5 14.875V21C24.5 21.9283 24.1313 22.8185 23.4749 23.4749C22.8185 24.1313 21.9283 24.5 21 24.5H7C6.07174 24.5 5.1815 24.1313 4.52513 23.4749C3.86875 22.8185 3.5 21.9283 3.5 21V7C3.5 6.07174 3.86875 5.1815 4.52513 4.52513C5.1815 3.86875 6.07174 3.5 7 3.5H13.125C13.3571 3.5 13.5796 3.59219 13.7437 3.75628C13.9078 3.92038 14 4.14294 14 4.375C14 4.60706 13.9078 4.82962 13.7437 4.99372C13.5796 5.15781 13.3571 5.25 13.125 5.25H7C6.53587 5.25 6.09075 5.43437 5.76256 5.76256C5.43437 6.09075 5.25 6.53587 5.25 7V21C5.25 21.4641 5.43437 21.9092 5.76256 22.2374C6.09075 22.5656 6.53587 22.75 7 22.75H21C21.4641 22.75 21.9092 22.5656 22.2374 22.2374C22.5656 21.9092 22.75 21.4641 22.75 21V14.875ZM13.79 15.4682C13.7101 15.555 13.6134 15.6247 13.5058 15.6731C13.3983 15.7215 13.282 15.7477 13.1641 15.7501C13.0462 15.7524 12.929 15.7309 12.8196 15.6868C12.7102 15.6427 12.6108 15.577 12.5275 15.4935C12.4441 15.41 12.3785 15.3106 12.3346 15.2011C12.2906 15.0916 12.2693 14.9744 12.2718 14.8565C12.2743 14.7386 12.3007 14.6224 12.3493 14.5149C12.3978 14.4074 12.4677 14.3108 12.5545 14.231L23.2838 3.5H18.375C18.1429 3.5 17.9204 3.40781 17.7563 3.24372C17.5922 3.07962 17.5 2.85706 17.5 2.625C17.5 2.39294 17.5922 2.17038 17.7563 2.00628C17.9204 1.84219 18.1429 1.75 18.375 1.75H24.5C24.9641 1.75 25.4092 1.93437 25.7374 2.26256C26.0656 2.59075 26.25 3.03587 26.25 3.5V9.625C26.25 9.85706 26.1578 10.0796 25.9937 10.2437C25.8296 10.4078 25.6071 10.5 25.375 10.5C25.1429 10.5 24.9204 10.4078 24.7563 10.2437C24.5922 10.0796 24.5 9.85706 24.5 9.625V4.76L13.79 15.4682Z" fill="black"/>
</svg>
